<svg id="SvgjsSvg1001" width="288" height="288" xmlns="http://www.w3.org/2000/svg" version="1.1" xmlns:xlink="http://www.w3.org/1999/xlink" xmlns:svgjs="http://svgjs.com/svgjs"><defs id="SvgjsDefs1002"></defs><g id="SvgjsG1008"><svg xmlns="http://www.w3.org/2000/svg" aria-label="Ruby On Rails" viewBox="0 0 512 512" width="288" height="288"><rect width="512" height="512" fill="#919191" rx="15%" class="svgShape colorffffff-0 selectable"></rect><g><path d="M98 402c34-163 125-282 321-288v15c-121 33-180 118-159 273H98z" fill="#ffffff" class="svgShape colorcc0000-2 selectable"></path><path d="M274 359l-4 27 30 13 1-27zM88 283l-13 36 34 10 13-35zM158 175l-25 27 31 23 25-30zM250 109l-27 19 21 24 28-18zM325 99l6 18 28-7-6-16zM359 169l13 20 16-15-7-16zM320 196l-17 18 23 27 12-19zM283 274l-8 25 31 18 1-27z" fill="#ffffff" class="svgShape colorcc0000-3 selectable"></path></g></svg></g></svg>